<svg width="100%" height="100%" viewBox="0 0 200 100" version="1.1" xmlns="http://www.w3.org/2000/svg" style="fill-rule:evenodd;clip-rule:evenodd;stroke-linejoin:round;stroke-miterlimit:2;">
    <g transform="matrix(1,0,0,1,-8.20569,-8.5201)">
        <g transform="matrix(0.497983,0,0,0.572966,23.6727,26.5351)">
            <path d="M39.601,61.807L34.705,41.303L38.943,41.303L42.034,55.387L45.782,41.303L50.706,41.303L54.3,55.625L57.447,41.303L61.615,41.303L56.636,61.807L52.244,61.807L48.16,46.478L44.09,61.807L39.601,61.807Z" style="fill-rule:nonzero;"/>
        </g>
        <g transform="matrix(0.497983,0,0,0.572966,23.6727,26.5351)">
            <path d="M63.741,61.807L63.741,41.303L67.881,41.303L67.881,49.373L75.993,49.373L75.993,41.303L80.133,41.303L80.133,61.807L75.993,61.807L75.993,52.842L67.881,52.842L67.881,61.807L63.741,61.807Z" style="fill-rule:nonzero;"/>
        </g>
        <g transform="matrix(0.497983,0,0,0.572966,23.6727,26.5351)">
            <path d="M89.798,61.807L89.798,53.178L82.287,41.303L87.14,41.303L91.966,49.415L96.693,41.303L101.462,41.303L93.924,53.206L93.924,61.807L89.798,61.807Z" style="fill-rule:nonzero;"/>
        </g>
        <g transform="matrix(0.497983,0,0,0.572966,23.6727,26.5351)">
            <path d="M111.001,61.807L111.001,41.303L115.029,41.303L123.421,54.996L123.421,41.303L127.267,41.303L127.267,61.807L123.113,61.807L114.847,48.436L114.847,61.807L111.001,61.807Z" style="fill-rule:nonzero;"/>
        </g>
        <g transform="matrix(0.497983,0,0,0.572966,23.6727,26.5351)">
            <path d="M150.135,61.807L145.631,61.807L143.841,57.15L135.645,57.15L133.953,61.807L129.561,61.807L137.547,41.303L141.925,41.303L150.135,61.807ZM142.512,53.695L139.687,46.086L136.918,53.695L142.512,53.695Z" style="fill-rule:nonzero;"/>
        </g>
        <g transform="matrix(0.497983,0,0,0.572966,23.6727,26.5351)">
            <path d="M154.82,61.807L154.82,44.772L148.736,44.772L148.736,41.303L165.03,41.303L165.03,44.772L158.96,44.772L158.96,61.807L154.82,61.807Z" style="fill-rule:nonzero;"/>
        </g>
        <g transform="matrix(0.497983,0,0,0.572966,23.6727,26.5351)">
            <rect x="167.576" y="41.303" width="4.14" height="20.504" style="fill-rule:nonzero;"/>
        </g>
        <g transform="matrix(0.497983,0,0,0.572966,23.6727,26.5351)">
            <path d="M174.821,51.681C174.821,49.592 175.133,47.839 175.758,46.422C176.224,45.378 176.861,44.441 177.667,43.611C178.474,42.781 179.357,42.166 180.318,41.765C181.595,41.224 183.068,40.953 184.737,40.953C187.758,40.953 190.176,41.891 191.989,43.765C193.803,45.639 194.709,48.245 194.709,51.583C194.709,54.893 193.81,57.483 192.01,59.353C190.211,61.222 187.805,62.157 184.793,62.157C181.744,62.157 179.32,61.227 177.52,59.367C175.721,57.506 174.821,54.944 174.821,51.681ZM179.087,51.541C179.087,53.863 179.623,55.623 180.695,56.821C181.767,58.019 183.129,58.618 184.779,58.618C186.43,58.618 187.784,58.024 188.842,56.835C189.901,55.646 190.43,53.863 190.43,51.485C190.43,49.135 189.914,47.383 188.884,46.226C187.854,45.07 186.486,44.492 184.779,44.492C183.073,44.492 181.697,45.077 180.653,46.247C179.609,47.417 179.087,49.182 179.087,51.541Z" style="fill-rule:nonzero;"/>
        </g>
        <g transform="matrix(0.497983,0,0,0.572966,23.6727,26.5351)">
            <path d="M197.982,61.807L197.982,41.303L202.01,41.303L210.402,54.996L210.402,41.303L214.248,41.303L214.248,61.807L210.095,61.807L201.829,48.436L201.829,61.807L197.982,61.807Z" style="fill-rule:nonzero;"/>
        </g>
        <g transform="matrix(0.497983,0,0,0.572966,23.6727,26.5351)">
            <path d="M217.577,55.136L221.605,54.744C221.848,56.096 222.34,57.089 223.081,57.723C223.822,58.357 224.822,58.674 226.081,58.674C227.414,58.674 228.419,58.392 229.095,57.828C229.771,57.264 230.109,56.604 230.109,55.849C230.109,55.364 229.967,54.951 229.682,54.611C229.398,54.271 228.902,53.975 228.193,53.723C227.708,53.555 226.603,53.257 224.878,52.828C222.659,52.278 221.102,51.602 220.207,50.8C218.948,49.672 218.319,48.296 218.319,46.674C218.319,45.63 218.615,44.653 219.207,43.744C219.799,42.835 220.652,42.142 221.766,41.667C222.88,41.191 224.225,40.953 225.801,40.953C228.375,40.953 230.312,41.518 231.613,42.646C232.913,43.774 233.596,45.28 233.662,47.163L229.522,47.345C229.344,46.292 228.964,45.534 228.382,45.072C227.799,44.611 226.925,44.38 225.759,44.38C224.556,44.38 223.615,44.627 222.934,45.121C222.496,45.438 222.277,45.863 222.277,46.394C222.277,46.879 222.482,47.294 222.892,47.639C223.414,48.077 224.682,48.534 226.696,49.01C228.71,49.485 230.2,49.977 231.165,50.485C232.13,50.993 232.885,51.688 233.431,52.569C233.976,53.45 234.249,54.539 234.249,55.835C234.249,57.01 233.923,58.11 233.27,59.136C232.617,60.161 231.694,60.924 230.501,61.423C229.307,61.921 227.82,62.171 226.039,62.171C223.447,62.171 221.456,61.572 220.067,60.374C218.677,59.175 217.848,57.429 217.577,55.136Z" style="fill-rule:nonzero;"/>
        </g>
        <g transform="matrix(0.497983,0,0,0.572966,23.6727,26.5351)">
            <path d="M245.718,61.807L245.718,41.303L259.774,41.303L259.774,44.772L249.858,44.772L249.858,49.625L258.417,49.625L258.417,53.094L249.858,53.094L249.858,61.807L245.718,61.807Z" style="fill-rule:nonzero;"/>
        </g>
        <g transform="matrix(0.497983,0,0,0.572966,23.6727,26.5351)">
            <path d="M280.096,61.807L275.593,61.807L273.802,57.15L265.606,57.15L263.914,61.807L259.522,61.807L267.509,41.303L271.886,41.303L280.096,61.807ZM272.474,53.695L269.649,46.086L266.879,53.695L272.474,53.695Z" style="fill-rule:nonzero;"/>
        </g>
        <g transform="matrix(0.497983,0,0,0.572966,23.6727,26.5351)">
            <rect x="282.166" y="41.303" width="4.14" height="20.504" style="fill-rule:nonzero;"/>
        </g>
        <g transform="matrix(0.497983,0,0,0.572966,23.6727,26.5351)">
            <path d="M290.362,61.807L290.362,41.471L294.502,41.471L294.502,58.353L304.796,58.353L304.796,61.807L290.362,61.807Z" style="fill-rule:nonzero;"/>
        </g>
    </g>
</svg>
